<?xml version="1.0" standalone="no"?>
<!DOCTYPE svg PUBLIC "-//W3C//DTD SVG 20010904//EN"
 "http://www.w3.org/TR/2001/REC-SVG-20010904/DTD/svg10.dtd">
<svg version="1.0" xmlns="http://www.w3.org/2000/svg"
 width="300.000000pt" height="169.000000pt" viewBox="0 0 300.000000 169.000000"
 preserveAspectRatio="xMidYMid meet">
<metadata>
Created by potrace 1.10, written by Peter Selinger 2001-2011
</metadata>
<g transform="translate(0.000000,169.000000) scale(0.100000,-0.100000)"
fill="#000000" stroke="none">
<path d="M1606 1522 c-4 -12 -5 -31 -1 -42 3 -10 -1 -33 -10 -50 -9 -17 -15
-39 -13 -48 3 -12 9 -8 22 17 14 26 20 31 27 20 5 -8 6 -30 2 -49 -4 -19 -6
-44 -5 -54 1 -25 -36 -78 -50 -70 -5 4 -23 -4 -40 -16 -16 -12 -36 -19 -44
-16 -12 4 -12 2 -4 -14 11 -20 11 -20 33 0 12 12 30 19 39 17 9 -3 19 2 22 10
8 21 23 8 31 -27 9 -39 25 -29 25 15 0 19 5 55 12 79 13 51 -1 176 -26 223
-13 26 -14 26 -20 5z"/>
<path d="M1452 1505 c-32 -70 -39 -235 -11 -286 8 -16 5 -21 -18 -30 -15 -7
-41 -17 -58 -24 -16 -8 -49 -18 -72 -24 -58 -16 -88 -56 -107 -143 -9 -40 -18
-89 -20 -108 -3 -19 -12 -55 -20 -79 -9 -24 -14 -53 -10 -63 3 -11 0 -20 -10
-24 -9 -3 -16 -14 -16 -24 0 -10 -7 -23 -15 -30 -8 -7 -15 -27 -15 -46 0 -34
-14 -54 -23 -32 -3 7 -6 1 -6 -14 -1 -15 4 -30 9 -33 16 -10 12 -38 -5 -31
-10 4 -15 -1 -15 -14 0 -11 5 -20 10 -20 17 0 11 -37 -6 -44 -16 -6 -16 -8 0
-24 9 -10 16 -26 16 -35 0 -21 10 -21 36 -2 19 15 19 16 -1 13 -17 -3 -20 3
-20 37 1 73 29 230 42 238 7 4 13 15 13 22 0 8 5 15 10 15 6 0 10 9 10 20 0
15 6 19 28 16 15 -2 21 -1 13 1 -17 6 -45 32 -37 34 3 1 11 2 18 3 15 1 22 23
9 31 -6 3 -11 15 -11 26 0 11 3 18 8 16 4 -3 23 9 42 25 19 17 25 25 13 19
-37 -19 -44 -14 -38 27 12 74 28 138 41 163 18 37 66 55 109 42 18 -6 54 -8
79 -6 43 5 47 4 58 -23 9 -20 19 -28 31 -26 9 2 17 8 17 14 0 5 9 17 20 26 12
10 23 34 26 57 l5 40 -14 -31 c-22 -47 -55 -56 -87 -24 -22 22 -27 76 -7 83 8
3 5 10 -10 22 -13 9 -23 23 -23 31 0 13 3 12 23 -1 22 -14 37 -12 37 7 0 4 -7
8 -15 8 -19 0 -48 44 -42 67 3 15 6 14 15 -7 l11 -25 0 29 1 28 19 -23 c17
-21 22 -22 46 -11 25 12 26 11 20 -10 -5 -20 -4 -21 5 -5 7 11 8 23 2 33 -6
11 -11 13 -16 5 -10 -16 -46 -13 -46 4 0 8 -9 15 -19 15 -11 0 -21 6 -24 13
-5 16 13 68 30 85 7 8 11 18 8 23 -11 17 -32 9 -43 -16z m-22 -365 c-19 -13
-30 -13 -30 0 0 6 10 10 23 10 18 0 19 -2 7 -10z m100 -29 c0 -18 -18 -21 -30
-6 -10 13 -9 15 9 15 11 0 21 -4 21 -9z"/>
<path d="M1543 1306 c-33 -10 -41 -20 -25 -30 14 -9 84 14 79 27 -5 15 -17 16
-54 3z"/>
<path d="M1652 1171 c1 -15 -2 -33 -5 -38 -8 -13 90 -27 126 -18 14 4 37 1 53
-8 35 -18 61 -94 68 -202 3 -38 10 -88 15 -110 6 -24 6 -44 1 -50 -6 -7 -4
-19 5 -32 8 -11 11 -23 7 -27 -3 -4 -1 -11 7 -15 7 -5 14 -34 17 -67 2 -32 5
-68 6 -79 1 -11 -2 -29 -6 -40 -4 -11 1 -6 10 10 10 18 19 25 22 17 6 -20 32
6 31 32 0 11 -3 15 -6 9 -2 -7 -13 -13 -24 -13 -16 0 -19 8 -20 43 -2 65 -7
98 -18 111 -5 6 -9 27 -9 46 1 19 -6 89 -14 156 -21 159 -57 232 -126 249 -27
7 -82 29 -114 46 -25 13 -27 12 -26 -20z m77 -37 c3 -3 -49 2 -57 5 -2 0 0 6
3 11 5 9 36 0 54 -16z"/>
<path d="M1586 1097 c-11 -8 -16 -20 -13 -28 4 -10 6 -9 6 4 1 9 6 17 12 17 6
0 9 -7 5 -15 -3 -8 -2 -15 3 -15 5 0 11 11 13 25 6 28 0 31 -26 12z"/>
<path d="M1367 1068 c-18 -18 -40 -31 -49 -30 -11 2 -18 -3 -18 -12 0 -25 24
-19 53 13 14 16 40 32 58 36 23 5 28 10 18 16 -22 14 -28 11 -62 -23z"/>
<path d="M1660 1081 c0 -5 6 -9 13 -8 38 1 56 -5 61 -20 4 -10 14 -28 24 -41
17 -22 19 -23 33 -6 12 16 12 17 -3 11 -13 -5 -22 2 -34 26 -9 18 -22 35 -28
39 -16 11 -66 10 -66 -1z"/>
<path d="M1554 1026 c-7 -7 -10 -36 -8 -67 2 -50 2 -51 -5 -14 -5 22 -9 32
-10 22 0 -11 -6 -15 -12 -11 -8 4 -8 0 0 -15 14 -26 10 -26 -30 -2 -27 16 -29
20 -13 24 13 3 11 3 -3 2 -13 -1 -23 1 -23 4 0 3 -21 7 -48 7 l-47 2 45 -12
c57 -16 91 -34 108 -58 7 -10 19 -18 26 -18 8 0 34 -12 60 -26 38 -21 45 -29
35 -40 -7 -8 -9 -17 -5 -21 3 -3 6 -1 6 5 0 7 16 2 38 -10 29 -17 34 -19 23
-5 -7 9 -20 17 -28 17 -12 0 -13 3 -5 13 13 16 -11 40 -60 60 l-32 13 22 22
c12 12 32 22 45 22 12 1 44 7 71 14 l49 13 -79 -1 c-51 0 -68 -2 -49 -7 20 -4
23 -7 10 -8 -11 0 -31 -8 -43 -17 -29 -20 -44 -8 -17 13 16 13 17 15 3 10 -14
-5 -18 -1 -18 16 0 13 4 27 10 33 5 5 6 14 2 20 -5 9 -10 9 -18 0z"/>
<path d="M1435 885 c-58 -30 -102 -105 -50 -85 25 9 25 9 10 -14 -8 -12 -12
-26 -8 -30 13 -13 11 -35 -3 -29 -8 3 -14 1 -14 -5 0 -5 9 -12 19 -15 16 -4
20 2 24 42 9 74 12 88 26 104 10 13 15 12 36 -9 13 -13 29 -24 35 -24 18 0 11
28 -10 35 -23 7 -26 21 -7 28 6 2 1 2 -11 0 -15 -2 -21 0 -17 7 8 13 6 13 -30
-5z"/>
<path d="M1522 852 c22 -14 25 -21 16 -30 -9 -9 -9 -12 3 -12 18 0 72 -54 63
-62 -3 -4 0 -17 8 -30 15 -27 19 -58 7 -58 -5 0 -6 -6 -3 -14 10 -26 -37 -120
-80 -158 -22 -21 -36 -38 -30 -38 5 0 23 13 39 30 21 22 34 28 52 24 27 -7 30
3 6 22 -17 12 -16 13 4 14 13 0 28 10 34 23 11 20 11 21 -4 8 -20 -16 -21 -8
-4 50 11 39 13 66 8 132 -1 10 -9 17 -22 17 -11 0 -18 4 -15 9 4 5 -6 19 -21
31 -16 12 -21 18 -13 14 8 -4 4 4 -9 17 -14 13 -34 25 -45 26 -18 3 -16 0 6
-15z"/>
<path d="M1450 750 c-11 -26 -8 -69 5 -80 12 -10 20 -9 41 5 l26 17 -21 19
c-12 11 -25 17 -30 14 -5 -3 -12 3 -14 12 -3 10 -6 16 -7 13z"/>
<path d="M1682 728 c5 -15 28 -23 28 -10 0 5 -7 13 -16 16 -10 4 -14 1 -12 -6z"/>
<path d="M1530 691 c0 -24 36 -37 55 -21 27 22 17 40 -20 40 -28 0 -35 -4 -35
-19z"/>
<path d="M1374 660 c2 -19 7 -45 11 -57 6 -18 3 -23 -11 -23 -14 0 -19 -8 -21
-28 l-1 -27 23 29 c13 16 28 26 34 21 16 -9 4 39 -21 85 l-19 35 5 -35z"/>
<path d="M1425 630 c11 -48 35 -84 48 -71 17 17 65 13 76 -6 7 -12 10 -13 11
-5 0 8 9 25 20 39 25 32 27 54 2 25 -27 -30 -117 -30 -134 1 -7 12 -12 25 -13
29 0 3 -4 10 -9 15 -5 4 -5 -7 -1 -27z"/>
<path d="M1140 643 c1 -11 50 -46 56 -40 3 3 -9 15 -25 27 -17 12 -31 18 -31
13z"/>
<path d="M1292 639 c-23 -9 -42 -45 -42 -80 0 -11 5 -17 10 -14 6 3 10 21 10
40 0 38 19 50 47 30 10 -8 23 -14 28 -14 6 0 3 5 -6 12 -9 7 -18 17 -20 23 -3
8 -12 9 -27 3z"/>
<path d="M1495 620 c3 -5 15 -10 26 -10 10 0 19 5 19 10 0 6 -12 10 -26 10
-14 0 -23 -4 -19 -10z"/>
<path d="M1297 573 c-10 -9 -9 -23 2 -23 5 0 11 7 15 15 5 15 -5 20 -17 8z"/>
<path d="M1433 545 c9 -8 17 -19 19 -25 2 -6 19 -13 38 -15 19 -3 28 -2 20 2
-8 3 -29 17 -46 30 -34 26 -53 31 -31 8z"/>
<path d="M1723 544 c-38 -16 -45 -28 -9 -14 15 5 27 5 35 -3 8 -8 11 -5 11 11
0 12 -1 22 -2 21 -2 0 -18 -7 -35 -15z"/>
<path d="M1377 522 c-10 -21 -11 -29 -2 -29 7 0 17 13 23 29 5 15 6 28 2 28
-5 0 -15 -13 -23 -28z"/>
<path d="M1320 532 c0 -5 -13 -8 -30 -7 -16 1 -30 -1 -30 -5 0 -8 -68 -25 -82
-22 -5 1 -8 -5 -8 -14 0 -11 -6 -14 -20 -9 -14 5 -20 2 -20 -9 0 -9 5 -16 11
-16 7 0 5 -10 -5 -25 -23 -35 -15 -31 32 15 22 22 49 40 61 40 27 0 101 37
101 50 0 6 -2 10 -5 10 -3 0 -5 -4 -5 -8z"/>
<path d="M1706 482 c-3 -5 16 -20 42 -34 30 -16 55 -39 69 -64 18 -31 23 -34
23 -18 0 23 -83 129 -88 114 -2 -6 -8 -10 -13 -10 -6 0 -7 5 -4 10 3 6 -1 10
-9 10 -8 0 -17 -4 -20 -8z"/>
<path d="M1985 468 c-4 -10 -13 -14 -23 -10 -15 5 -15 4 -3 -12 13 -15 16 -15
29 -2 8 8 12 20 9 28 -3 10 -6 9 -12 -4z"/>
<path d="M1441 426 c-21 -23 -22 -24 -2 -29 13 -3 18 -1 15 8 -3 7 5 20 18 29
16 11 18 16 7 16 -9 0 -26 -11 -38 -24z"/>
<path d="M1202 410 c0 -8 4 -26 8 -40 6 -20 8 -21 8 -5 0 11 -3 29 -8 40 -5
12 -8 14 -8 5z"/>
<path d="M1961 386 c-8 -10 -9 -16 -1 -21 5 -3 13 1 16 10 9 22 -1 29 -15 11z"/>
<path d="M1057 343 c-15 -14 -4 -83 13 -83 16 0 19 44 5 60 -8 9 -12 20 -8 23
3 4 4 7 1 7 -2 0 -8 -3 -11 -7z"/>
<path d="M48 60 c-12 -3 -24 -13 -26 -22 -4 -23 49 -41 97 -33 68 11 57 25
-18 25 -40 0 -71 4 -71 10 0 5 27 9 61 9 33 -1 62 1 65 4 8 7 -81 13 -108 7z"/>
<path d="M2443 55 c-25 -17 -37 -55 -18 -55 8 0 17 9 20 20 6 19 15 20 281 20
237 0 274 2 274 15 0 22 -525 22 -557 0z"/>
</g>
</svg>
