<?xml version="1.0" standalone="no"?>
<!DOCTYPE svg PUBLIC "-//W3C//DTD SVG 20010904//EN"
 "http://www.w3.org/TR/2001/REC-SVG-20010904/DTD/svg10.dtd">
<svg version="1.0" xmlns="http://www.w3.org/2000/svg"
 width="300.000000pt" height="66.000000pt" viewBox="0 0 300.000000 66.000000"
 preserveAspectRatio="xMidYMid meet">
<metadata>
Created by potrace 1.10, written by Peter Selinger 2001-2011
</metadata>
<g transform="translate(0.000000,66.000000) scale(0.100000,-0.100000)"
fill="#0ca00c" stroke="none">
<path d="M476 555 c-56 -20 -86 -44 -123 -98 -87 -129 -56 -287 56 -287 33 0
49 7 81 36 21 20 45 51 52 70 6 19 18 34 25 34 17 0 17 24 0 38 -9 8 -32 7
-80 -4 -59 -14 -66 -18 -55 -31 8 -11 24 -14 50 -10 21 3 38 3 38 0 0 -28 -76
-113 -102 -113 -51 0 -68 127 -28 217 23 53 70 107 112 129 48 25 78 -8 42
-48 -14 -14 -14 -20 -4 -33 12 -14 15 -14 31 1 22 20 25 76 6 92 -22 19 -61
22 -101 7z"/>
<path d="M2058 544 c-56 -17 -62 -24 -42 -52 l15 -21 32 19 c42 26 67 27 44 2
-18 -19 -73 -135 -105 -219 -18 -48 -18 -53 -3 -66 50 -44 122 -49 191 -13 77
39 110 113 74 165 -15 21 -15 24 10 50 20 20 26 37 26 69 0 37 -4 45 -32 62
-40 24 -139 26 -210 4z m197 -24 c22 -8 26 -15 23 -42 -4 -44 -44 -70 -113
-76 l-56 -5 33 67 c35 71 52 79 113 56z m-72 -158 c45 10 67 -2 67 -37 0 -50
-62 -98 -140 -109 -63 -9 -74 1 -55 47 8 20 21 53 29 72 13 30 18 34 37 26 13
-4 41 -4 62 1z"/>
<path d="M638 378 c-34 -86 -52 -154 -45 -173 12 -29 33 -15 45 30 7 25 27 62
46 83 l34 37 26 -24 c29 -27 31 -24 39 47 7 56 -10 55 -64 -3 -49 -53 -61 -52
-29 2 21 35 21 38 4 50 -10 7 -21 13 -25 13 -4 0 -18 -28 -31 -62z"/>
<path d="M891 427 c-37 -19 -79 -77 -92 -128 -11 -41 -10 -50 5 -74 32 -49 75
-46 130 10 53 53 74 165 31 165 -8 0 -19 9 -25 20 -12 23 -17 24 -49 7z m59
-72 c0 -48 -22 -97 -55 -123 -38 -30 -55 -28 -55 7 0 43 17 82 53 119 41 42
57 41 57 -3z"/>
<path d="M1104 426 c-66 -29 -106 -118 -80 -180 26 -63 68 -71 121 -25 43 38
40 48 -6 20 -56 -34 -69 -29 -69 27 0 29 7 59 20 79 36 60 104 84 78 28 -6
-14 -15 -25 -20 -25 -4 0 -8 -4 -8 -10 0 -18 39 -11 50 9 14 28 12 57 -6 75
-19 19 -39 20 -80 2z"/>
<path d="M1303 420 c-42 -25 -80 -84 -88 -135 -8 -51 21 -95 64 -95 32 0 111
63 97 77 -5 4 -11 3 -13 -4 -7 -19 -72 -56 -88 -49 -8 3 -15 16 -15 28 1 17
12 28 43 43 70 33 108 111 70 141 -24 18 -33 17 -70 -6z m57 -41 c0 -15 -89
-104 -96 -96 -14 14 58 107 83 107 7 0 13 -5 13 -11z"/>
<path d="M1466 413 c-7 -16 -26 -66 -40 -112 -24 -76 -25 -86 -11 -100 18 -19
28 -9 43 44 6 22 27 56 46 74 l35 34 20 -24 c25 -31 33 -22 37 41 4 64 -9 65
-61 3 -42 -51 -59 -43 -26 12 20 34 20 35 1 45 -26 14 -28 13 -44 -17z"/>
<path d="M1671 412 c-41 -59 -77 -166 -63 -188 4 -6 16 -16 27 -22 27 -14 48
-1 75 44 31 49 35 37 9 -31 -14 -37 -39 -76 -69 -107 -45 -47 -51 -50 -89 -46
-23 2 -41 0 -41 -4 0 -13 38 -28 71 -28 72 0 136 72 189 214 17 45 39 100 50
123 l20 43 -26 6 c-14 4 -26 5 -28 3 -2 -2 -17 -31 -35 -65 -37 -70 -89 -137
-101 -129 -17 10 31 136 68 178 17 19 16 22 -15 31 -16 5 -26 0 -42 -22z"/>
<path d="M2625 411 c-68 -50 -102 -131 -75 -182 14 -24 31 -24 64 2 35 28 34
9 -5 -69 -40 -82 -71 -105 -126 -99 -48 5 -56 -4 -18 -21 66 -30 125 -5 170
73 21 36 115 257 115 271 0 2 -8 4 -18 4 -10 0 -27 -18 -41 -45 -30 -57 -104
-127 -109 -103 -8 40 92 168 131 168 30 0 13 25 -19 28 -20 2 -42 -7 -69 -27z"/>
<path d="M2400 413 c-33 -23 -48 -41 -70 -88 -24 -50 -25 -97 -2 -118 22 -20
51 -6 88 43 l26 35 -7 -33 c-8 -38 7 -62 33 -55 13 3 17 13 14 41 -2 20 4 57
13 82 22 60 23 74 5 77 -10 2 -29 -22 -54 -67 -62 -111 -113 -146 -87 -60 13
45 62 106 92 115 19 7 20 8 3 26 -21 23 -23 23 -54 2z"/>
</g>
</svg>
